<?xml version="1.0" encoding="UTF-8" standalone="no"?>
<!-- Created with Inkscape (http://www.inkscape.org/) -->

<svg
   xmlns:dc="http://purl.org/dc/elements/1.1/"
   xmlns:cc="http://creativecommons.org/ns#"
   xmlns:rdf="http://www.w3.org/1999/02/22-rdf-syntax-ns#"
   xmlns:svg="http://www.w3.org/2000/svg"
   xmlns="http://www.w3.org/2000/svg"
   xmlns:sodipodi="http://sodipodi.sourceforge.net/DTD/sodipodi-0.dtd"
   xmlns:inkscape="http://www.inkscape.org/namespaces/inkscape"
   width="400"
   height="400"
   id="svg3187"
   version="1.1"
   inkscape:version="0.91 r13725"
   sodipodi:docname="akitaxi.svg">
  <defs
     id="defs3">
    <filter
       inkscape:collect="always"
       id="filter6984-1-7-6-9-9"
       style="color-interpolation-filters:sRGB">
      <feGaussianBlur
         inkscape:collect="always"
         stdDeviation="5.0754087"
         id="feGaussianBlur6986-7-3-0-2-8" />
    </filter>
    <filter
       inkscape:collect="always"
       id="filter4288-1-2-8-9"
       style="color-interpolation-filters:sRGB">
      <feGaussianBlur
         inkscape:collect="always"
         stdDeviation="1.301834"
         id="feGaussianBlur4290-5-8-49-8" />
    </filter>
    <filter
       inkscape:collect="always"
       id="filter4298-4-5-3-9"
       style="color-interpolation-filters:sRGB">
      <feGaussianBlur
         inkscape:collect="always"
         stdDeviation="0.7565357"
         id="feGaussianBlur4300-9-0-4-1" />
    </filter>
  </defs>
  <sodipodi:namedview
     inkscape:document-units="mm"
     id="base"
     pagecolor="#ffffff"
     bordercolor="#666666"
     borderopacity="1.0"
     inkscape:pageopacity="0.0"
     inkscape:pageshadow="2"
     inkscape:zoom="0.35"
     inkscape:cx="639.43726"
     inkscape:cy="498.18305"
     inkscape:current-layer="layer1"
     showgrid="false"
     units="mm"
     inkscape:window-width="1366"
     inkscape:window-height="744"
     inkscape:window-x="0"
     inkscape:window-y="24"
     inkscape:window-maximized="1" />
  <metadata
     id="metadata4">
    <rdf:RDF>
      <cc:Work
         rdf:about="">
        <dc:format>image/svg+xml</dc:format>
        <dc:type
           rdf:resource="http://purl.org/dc/dcmitype/StillImage" />
        <dc:title></dc:title>
      </cc:Work>
    </rdf:RDF>
  </metadata>
  <g
     inkscape:label="Layer 1"
     inkscape:groupmode="layer"
     id="layer1"
     transform="translate(0,-652.36225)">
    <g
       id="g3717"
       transform="matrix(0.37282948,0,0,0.37282948,27.543119,547.71035)">
      <g
         inkscape:export-ydpi="85.433044"
         inkscape:export-xdpi="85.433044"
         inkscape:export-filename="C:\Users\alvaro\akitaxi-4.png"
         transform="matrix(1.7767114,0,0,1.9501364,1004.4084,-951.37257)"
         style="opacity:0.53469388;fill:#000000;filter:url(#filter6984-1-7-6-9-9)"
         id="g6946-4-3-2-5-4">
        <g
           transform="matrix(1.0702173,0,0,0.99987313,1925.2896,1772.9859)"
           style="fill:#000000"
           id="g6948-0-4-4-5-2">
          <path
             inkscape:connector-curvature="0"
             id="path6950-9-2-8-3-5"
             style="font-style:normal;font-variant:normal;font-weight:normal;font-stretch:normal;font-size:20px;line-height:125%;font-family:'Franklin Gothic Heavy';-inkscape-font-specification:'Franklin Gothic Heavy';letter-spacing:0px;word-spacing:0px;fill:#000000;fill-opacity:1;stroke:none"
             d="m -2116.5554,-828.59131 -2.6165,-9.8743 -12.4367,0 -2.7864,9.8743 -11.5532,0 14.3396,-50.1057 15.0532,0 14.5094,50.1057 z m -12.6406,-20.8131 7.5435,0 -3.7717,-14.5361 z"
             inkscape:export-filename="C:\Users\anderson\prestopo.png"
             inkscape:export-xdpi="85.433044"
             inkscape:export-ydpi="85.433044" />
          <path
             inkscape:connector-curvature="0"
             id="path6952-4-2-6-3-3"
             style="font-style:normal;font-variant:normal;font-weight:normal;font-stretch:normal;font-size:20px;line-height:125%;font-family:'Franklin Gothic Heavy';-inkscape-font-specification:'Franklin Gothic Heavy';letter-spacing:0px;word-spacing:0px;fill:#000000;fill-opacity:1;stroke:none"
             d="m -2055.867,-828.59131 -15.5968,0 -8.0194,-18.9409 -4.7911,7.3782 0,11.5627 -13.4222,0 0,-50.1057 13.4222,0 0,20.7031 12.8105,-20.7031 12.7765,0 -11.7231,18.3171 z"
             inkscape:export-filename="C:\Users\anderson\prestopo.png"
             inkscape:export-xdpi="85.433044"
             inkscape:export-ydpi="85.433044" />
          <path
             inkscape:connector-curvature="0"
             id="path6954-8-0-50-3-8"
             style="font-style:normal;font-variant:normal;font-weight:normal;font-stretch:normal;font-size:20px;line-height:125%;font-family:'Franklin Gothic Heavy';-inkscape-font-specification:'Franklin Gothic Heavy';letter-spacing:0px;word-spacing:0px;fill:#000000;fill-opacity:1;stroke:none"
             d="m -2037.7896,-878.69701 0,50.1057 -14.2377,0 0,-50.1057 z"
             inkscape:export-filename="C:\Users\anderson\prestopo.png"
             inkscape:export-xdpi="85.433044"
             inkscape:export-ydpi="85.433044" />
        </g>
        <g
           transform="matrix(1.0702173,0,0,0.99987313,1925.2896,1772.9859)"
           style="fill:#000000"
           id="g6956-8-1-9-7-9">
          <path
             inkscape:connector-curvature="0"
             id="path6958-2-2-0-4-2"
             style="font-style:normal;font-variant:normal;font-weight:normal;font-stretch:normal;font-size:20px;line-height:125%;font-family:'Franklin Gothic Heavy';-inkscape-font-specification:'Franklin Gothic Heavy';letter-spacing:0px;word-spacing:0px;fill:#000000;fill-opacity:1;stroke:none"
             d="m -2010.6734,-866.69351 0,38.1022 -13.4902,0 0,-38.1022 -9.6163,0 0,-12.0035 32.7228,0 0,12.0035 z"
             inkscape:export-filename="C:\Users\anderson\prestopo.png"
             inkscape:export-xdpi="85.433044"
             inkscape:export-ydpi="85.433044" />
          <path
             inkscape:connector-curvature="0"
             id="path6960-4-7-0-3-8"
             style="font-style:normal;font-variant:normal;font-weight:normal;font-stretch:normal;font-size:20px;line-height:125%;font-family:'Franklin Gothic Heavy';-inkscape-font-specification:'Franklin Gothic Heavy';letter-spacing:0px;word-spacing:0px;fill:#000000;fill-opacity:1;stroke:none"
             d="m -1971.3925,-828.59131 -2.6165,-9.8743 -12.4366,0 -2.7864,9.8743 -11.5533,0 14.3397,-50.1057 15.0531,0 14.5095,50.1057 z m -12.6406,-20.8131 7.5436,0 -3.7718,-14.5361 z"
             inkscape:export-filename="C:\Users\anderson\prestopo.png"
             inkscape:export-xdpi="85.433044"
             inkscape:export-ydpi="85.433044" />
          <path
             inkscape:connector-curvature="0"
             id="path6962-5-7-6-80-7"
             style="font-style:normal;font-variant:normal;font-weight:normal;font-stretch:normal;font-size:20px;line-height:125%;font-family:'Franklin Gothic Heavy';-inkscape-font-specification:'Franklin Gothic Heavy';letter-spacing:0px;word-spacing:0px;fill:#000000;fill-opacity:1;stroke:none"
             d="m -1912.8448,-878.69701 -13.4561,23.2725 15.5968,26.8332 -16.5483,0 -8.5629,-15.7475 -8.6309,15.7475 -13.0484,0 14.9512,-25.9522 -14.3396,-24.1535 16.5823,0 7.2038,13.4717 7.4756,-13.4717 z"
             inkscape:export-filename="C:\Users\anderson\prestopo.png"
             inkscape:export-xdpi="85.433044"
             inkscape:export-ydpi="85.433044" />
          <path
             inkscape:connector-curvature="0"
             id="path6964-5-0-1-8-0"
             style="font-style:normal;font-variant:normal;font-weight:normal;font-stretch:normal;font-size:20px;line-height:125%;font-family:'Franklin Gothic Heavy';-inkscape-font-specification:'Franklin Gothic Heavy';letter-spacing:0px;word-spacing:0px;fill:#000000;fill-opacity:1;stroke:none"
             d="m -1893.3063,-878.69701 0,50.1057 -14.2376,0 0,-50.1057 z"
             inkscape:export-filename="C:\Users\anderson\prestopo.png"
             inkscape:export-xdpi="85.433044"
             inkscape:export-ydpi="85.433044" />
        </g>
        <g
           inkscape:export-ydpi="85.433044"
           inkscape:export-xdpi="85.433044"
           inkscape:export-filename="C:\Users\anderson\prestopo.png"
           style="fill:#000000;fill-opacity:1"
           transform="matrix(0.59687225,0.53138378,-0.68417586,0.59586122,-207.0767,710.2783)"
           id="g6968-7-4-8-6-4">
          <path
             style="fill:#000000;fill-opacity:1;stroke:none"
             d="m 217.3647,46.265992 11,10.5 c 19.22204,-14.911726 40.28731,-19.616269 65.61494,-0.717261 L 305.82368,45.972459 C 278.88586,26.662439 250.3959,19.172576 217.3647,46.265992"
             id="path6970-1-1-9-8-8"
             inkscape:connector-curvature="0"
             sodipodi:nodetypes="ccccc" />
          <path
             style="fill:#000000;fill-opacity:1;stroke:none"
             d="m 233.69879,61.175255 11.31371,11.136932 c 11.57619,-9.749442 22.18349,-7.87229 32.35013,-0.707107 l 11.49049,-10.429825 c -15.469,-11.298623 -32.22034,-17.628186 -55.15433,0"
             id="path6972-1-0-3-1-1"
             inkscape:connector-curvature="0"
             sodipodi:nodetypes="ccccc" />
        </g>
        <g
           transform="matrix(3.3292206,0,0,3.222181,2242.0648,2220.3103)"
           style="fill:#000000;fill-opacity:1"
           id="g6974-5-3-44-9-9">
          <ellipse
             style="fill:#000000;fill-opacity:1;fill-rule:nonzero;stroke:none"
             id="path6976-2-7-6-8-3"
             transform="matrix(0.37143886,0,0,0.33058807,-849.11937,-392.75485)"
             cx="105.31848"
             cy="-84.375298"
             rx="71.61657"
             ry="70.914444" />
          <path
             style="fill:#000000;fill-opacity:1;stroke:none"
             d="m -836.56058,-419.40773 c 2.40285,14.70856 16.27541,28.81664 24.43331,43.22389 9.41144,-13.19166 24.1836,-25.74717 28.23115,-39.57536 l -42.18372,-6.84735"
             id="path6978-7-3-0-9-5"
             inkscape:connector-curvature="0"
             sodipodi:nodetypes="cccc" />
        </g>
        <path
           inkscape:connector-curvature="0"
           id="path6980-6-9-6-7-9"
           d="m -453.97393,789.51487 c -48.91098,0 -88.64051,33.80078 -88.64051,75.51987 0,2.29848 0.18045,4.60096 0.41616,6.84713 16.65992,-39.75626 37.44078,-71.13383 54.41195,-71.9956 16.49779,-4.10045 62.32481,51.79579 76.57207,131.30388 27.26373,-12.87716 45.77678,-37.69082 45.77678,-66.15541 0,-41.71909 -39.62548,-75.51987 -88.53645,-75.51987 z m -33.50029,23.15943 c -0.40852,0.0161 -0.84253,0.003 -1.24845,0.10053 -15.81903,3.75971 -29.20037,55.06953 -35.89316,97.97444 16.17552,18.14427 41.85642,29.80518 70.6419,29.80518 3.09281,0 6.14428,-0.038 9.15535,-0.30192 -2.67593,-47.45216 -23.89015,-128.39205 -42.65564,-127.57823 z"
           style="fill:#000000;fill-opacity:1;fill-rule:nonzero;stroke:none" />
        <path
           sodipodi:nodetypes="ccccccsccccccccccc"
           inkscape:connector-curvature="0"
           id="path6982-1-5-6-2-7"
           d="m -507.55358,858.79176 -6.97055,2.01387 c -4.52984,16.70508 -8.15184,35.48395 -10.71593,52.66253 18.07131,31.77253 45.514,63.10586 64.08749,94.85294 5.33079,-7.2317 11.27414,-14.40498 17.37437,-21.54833 l -23.92877,-0.80554 c 4.13656,-3.96828 -3.82601,-3.51615 17.06226,-13.29151 11.47642,-5.37078 5.30585,-61.56166 -6.97056,-106.02988 -34.99241,13.2039 -40.32781,0.83148 -49.93831,-7.85408 z m -33.70836,9.96863 -1.14441,0.30192 c 0.0909,0.5391 0.2114,1.07247 0.31194,1.61109 0.26867,-0.63899 0.56137,-1.27872 0.83231,-1.91317 z m 112.3612,2.41663 c 9.24101,21.85596 16.67447,47.64434 19.97533,75.92265 18.51222,-21.56338 34.89948,-43.36177 41.82333,-66.2561 -16.63359,-43.98039 -38.05012,-38.80641 -61.79866,-9.66655 z"
           style="fill:#000000;fill-opacity:1;stroke:none" />
      </g>
      <g
         inkscape:export-ydpi="85.433044"
         inkscape:export-xdpi="85.433044"
         inkscape:export-filename="C:\Users\alvaro\akitaxi-4.png"
         transform="matrix(1.9014673,0,0,1.949889,4420.9257,2509.3529)"
         style="fill:#ffed00;fill-opacity:1"
         id="g3568-2-2-9-18-2-9">
        <path
           inkscape:connector-curvature="0"
           id="path4345-6-4-3-7-4-8-8"
           style="font-style:normal;font-variant:normal;font-weight:normal;font-stretch:normal;font-size:20px;line-height:125%;font-family:'Franklin Gothic Heavy';-inkscape-font-specification:'Franklin Gothic Heavy';letter-spacing:0px;word-spacing:0px;fill:#ffed00;fill-opacity:1;stroke:none"
           d="m -2116.5554,-828.59131 -2.6165,-9.8743 -12.4367,0 -2.7864,9.8743 -11.5532,0 14.3396,-50.1057 15.0532,0 14.5094,50.1057 z m -12.6406,-20.8131 7.5435,0 -3.7717,-14.5361 z"
           inkscape:export-filename="C:\Users\anderson\prestopo.png"
           inkscape:export-xdpi="85.433044"
           inkscape:export-ydpi="85.433044" />
        <path
           inkscape:connector-curvature="0"
           id="path4347-5-66-2-2-9-2-0"
           style="font-style:normal;font-variant:normal;font-weight:normal;font-stretch:normal;font-size:20px;line-height:125%;font-family:'Franklin Gothic Heavy';-inkscape-font-specification:'Franklin Gothic Heavy';letter-spacing:0px;word-spacing:0px;fill:#ffed00;fill-opacity:1;stroke:none"
           d="m -2055.867,-828.59131 -15.5968,0 -8.0194,-18.9409 -4.7911,7.3782 0,11.5627 -13.4222,0 0,-50.1057 13.4222,0 0,20.7031 12.8105,-20.7031 12.7765,0 -11.7231,18.3171 z"
           inkscape:export-filename="C:\Users\anderson\prestopo.png"
           inkscape:export-xdpi="85.433044"
           inkscape:export-ydpi="85.433044" />
        <path
           inkscape:connector-curvature="0"
           id="path4349-1-6-21-0-6-8-1"
           style="font-style:normal;font-variant:normal;font-weight:normal;font-stretch:normal;font-size:20px;line-height:125%;font-family:'Franklin Gothic Heavy';-inkscape-font-specification:'Franklin Gothic Heavy';letter-spacing:0px;word-spacing:0px;fill:#ffed00;fill-opacity:1;stroke:none"
           d="m -2037.7896,-878.69701 0,50.1057 -14.2377,0 0,-50.1057 z"
           inkscape:export-filename="C:\Users\anderson\prestopo.png"
           inkscape:export-xdpi="85.433044"
           inkscape:export-ydpi="85.433044" />
      </g>
      <g
         inkscape:export-ydpi="85.433044"
         inkscape:export-xdpi="85.433044"
         inkscape:export-filename="C:\Users\alvaro\akitaxi-4.png"
         transform="matrix(1.9014673,0,0,1.949889,4420.9257,2509.3529)"
         style="fill:#ffffff"
         id="g3573-2-6-2-3-9-4">
        <path
           inkscape:connector-curvature="0"
           id="path4351-2-90-8-8-7-0-7"
           style="font-style:normal;font-variant:normal;font-weight:normal;font-stretch:normal;font-size:20px;line-height:125%;font-family:'Franklin Gothic Heavy';-inkscape-font-specification:'Franklin Gothic Heavy';letter-spacing:0px;word-spacing:0px;fill:#ffffff;fill-opacity:1;stroke:none"
           d="m -2010.6734,-866.69351 0,38.1022 -13.4902,0 0,-38.1022 -9.6163,0 0,-12.0035 32.7228,0 0,12.0035 z"
           inkscape:export-filename="C:\Users\anderson\prestopo.png"
           inkscape:export-xdpi="85.433044"
           inkscape:export-ydpi="85.433044" />
        <path
           inkscape:connector-curvature="0"
           id="path4353-9-4-5-6-8-7-5"
           style="font-style:normal;font-variant:normal;font-weight:normal;font-stretch:normal;font-size:20px;line-height:125%;font-family:'Franklin Gothic Heavy';-inkscape-font-specification:'Franklin Gothic Heavy';letter-spacing:0px;word-spacing:0px;fill:#ffffff;fill-opacity:1;stroke:none"
           d="m -1971.3925,-828.59131 -2.6165,-9.8743 -12.4366,0 -2.7864,9.8743 -11.5533,0 14.3397,-50.1057 15.0531,0 14.5095,50.1057 z m -12.6406,-20.8131 7.5436,0 -3.7718,-14.5361 z"
           inkscape:export-filename="C:\Users\anderson\prestopo.png"
           inkscape:export-xdpi="85.433044"
           inkscape:export-ydpi="85.433044" />
        <path
           inkscape:connector-curvature="0"
           id="path4355-5-9-76-7-82-8-5"
           style="font-style:normal;font-variant:normal;font-weight:normal;font-stretch:normal;font-size:20px;line-height:125%;font-family:'Franklin Gothic Heavy';-inkscape-font-specification:'Franklin Gothic Heavy';letter-spacing:0px;word-spacing:0px;fill:#ffffff;fill-opacity:1;stroke:none"
           d="m -1912.8448,-878.69701 -13.4561,23.2725 15.5968,26.8332 -16.5483,0 -8.5629,-15.7475 -8.6309,15.7475 -13.0484,0 14.9512,-25.9522 -14.3396,-24.1535 16.5823,0 7.2038,13.4717 7.4756,-13.4717 z"
           inkscape:export-filename="C:\Users\anderson\prestopo.png"
           inkscape:export-xdpi="85.433044"
           inkscape:export-ydpi="85.433044" />
        <path
           inkscape:connector-curvature="0"
           id="path4357-6-3-1-0-91-1-5"
           style="font-style:normal;font-variant:normal;font-weight:normal;font-stretch:normal;font-size:20px;line-height:125%;font-family:'Franklin Gothic Heavy';-inkscape-font-specification:'Franklin Gothic Heavy';letter-spacing:0px;word-spacing:0px;fill:#ffffff;fill-opacity:1;stroke:none"
           d="m -1893.3063,-878.69701 0,50.1057 -14.2376,0 0,-50.1057 z"
           inkscape:export-filename="C:\Users\anderson\prestopo.png"
           inkscape:export-xdpi="85.433044"
           inkscape:export-ydpi="85.433044" />
      </g>
      <g
         inkscape:export-ydpi="85.433044"
         inkscape:export-xdpi="85.433044"
         inkscape:export-filename="C:\Users\alvaro\akitaxi-4.png"
         style="fill:#ffffff;fill-opacity:1"
         transform="matrix(1.0604748,1.0362684,-1.2155888,1.1620052,632.31802,436.91286)"
         id="g4665-1-9-1-5-86-9">
        <path
           style="fill:#ffffff;fill-opacity:1;stroke:none"
           d="m 217.3647,46.265992 11,10.5 c 19.22204,-14.911726 40.28731,-19.616269 65.61494,-0.717261 L 305.82368,45.972459 C 278.88586,26.662439 250.3959,19.172576 217.3647,46.265992"
           id="path4655-9-2-8-98-12-2"
           inkscape:connector-curvature="0"
           sodipodi:nodetypes="ccccc" />
        <path
           style="fill:#ffffff;fill-opacity:1;stroke:none"
           d="m 233.69879,61.175255 11.31371,11.136932 c 11.57619,-9.749442 22.18349,-7.87229 32.35013,-0.707107 l 11.49049,-10.429825 c -15.469,-11.298623 -32.22034,-17.628186 -55.15433,0"
           id="path4660-9-7-3-4-4-8"
           inkscape:connector-curvature="0"
           sodipodi:nodetypes="ccccc" />
      </g>
      <g
         inkscape:export-ydpi="85.433044"
         inkscape:export-xdpi="85.433044"
         inkscape:export-filename="C:\Users\alvaro\akitaxi-4.png"
         transform="matrix(5.9150212,0,0,6.2837393,4983.712,3381.7582)"
         style="fill:#ffffff;fill-opacity:1"
         id="g4903-5-9-0-0-25-2">
        <ellipse
           style="fill:#ffffff;fill-opacity:1;fill-rule:nonzero;stroke:none"
           id="path4392-3-5-5-3-7-8-4"
           transform="matrix(0.37143886,0,0,0.33058807,-849.11937,-392.75485)"
           cx="105.31848"
           cy="-84.375298"
           rx="71.61657"
           ry="70.914444" />
        <path
           style="fill:#ffffff;fill-opacity:1;stroke:none"
           d="m -836.56058,-419.40773 c 2.40285,14.70856 16.27541,28.81664 24.43331,43.22389 9.41144,-13.19166 24.1836,-25.74717 28.23115,-39.57536 l -42.18372,-6.84735"
           id="path4394-0-5-4-6-6-62-5"
           inkscape:connector-curvature="0"
           sodipodi:nodetypes="cccc" />
      </g>
      <path
         transform="matrix(1.6033756,0,0,1.6631546,-448.67188,-418.82355)"
         inkscape:export-ydpi="85.433044"
         inkscape:export-xdpi="85.433044"
         inkscape:export-filename="C:\Users\alvaro\akitaxi-4.png"
         sodipodi:nodetypes="cccccccc"
         inkscape:connector-curvature="0"
         id="path3518-2-3-6-04"
         d="m 390.94303,844.31575 c -3.43521,-9.66449 1.7027,-10.7559 4.5457,-14.14214 6.6176,-4.81797 14.6536,-7.10511 18.6878,-15.15228 -0.576,-112.62007 -31.17751,-179.57644 -50.50761,-180.56474 l 30.80961,161.87692 -9.59641,16.66751 0.5051,27.7792 z"
         style="opacity:0.46500017;fill:#1a1a1a;stroke:#000000;stroke-width:1px;stroke-linecap:butt;stroke-linejoin:miter;stroke-opacity:1;filter:url(#filter4288-1-2-8-9)" />
      <path
         transform="matrix(1.6033756,0,0,1.6631546,-448.67188,-418.82355)"
         inkscape:export-ydpi="85.433044"
         inkscape:export-xdpi="85.433044"
         inkscape:export-filename="C:\Users\alvaro\akitaxi-4.png"
         sodipodi:nodetypes="cccccccccc"
         inkscape:connector-curvature="0"
         id="path4292-0-6-5-4"
         d="m 302.30342,693.05808 0.4732,12.39977 c 16.562,-36.11026 40.3008,-82.27056 61.6499,-86.40606 l -3.283,-2.778 -11.3642,5.8084 -13.132,9.5965 -14.6472,20.7081 -6.0609,13.132 -10.3541,17.1726 z"
         style="opacity:0.46500017;fill:#1a1a1a;stroke:none;filter:url(#filter4298-4-5-3-9)" />
      <path
         inkscape:export-ydpi="85.433044"
         inkscape:export-xdpi="85.433044"
         inkscape:export-filename="C:\Users\alvaro\akitaxi-4.png"
         inkscape:connector-curvature="0"
         id="path4392-5-0-3-2-1-3-0"
         d="m 193.65434,591.41492 c -86.9027,0 -157.483388,65.89829 -157.483388,147.2663 0,4.4885 0.364655,8.97761 0.730329,13.37782 29.592244,-77.53324 66.522079,-138.7233 96.661209,-140.42157 29.31662,-7.97717 110.74743,101.02337 136.05298,256.04887 48.42258,-25.10422 81.33972,-73.48193 81.33972,-129.00512 0,-81.36801 -70.3981,-147.2663 -157.30085,-147.2663 z m -59.54414,45.1525 c -0.72924,0.003 -1.50404,0 -2.19091,0.0152 -28.1293,7.33101 -51.885949,107.39301 -63.784564,191.06568 28.725297,35.38403 74.363784,58.12165 125.519614,58.12165 5.47311,0 10.89853,-0.006 16.23422,-0.5879 C 205.14581,792.64571 167.44039,634.799 134.1102,636.38512 Z"
         style="fill:#ffed00;fill-opacity:1;fill-rule:nonzero;stroke:none" />
      <path
         inkscape:export-filename="C:\Users\alvaro\akitaxi-4.png"
         inkscape:export-ydpi="85.433044"
         inkscape:export-xdpi="85.433044"
         sodipodi:nodetypes="ccccccsccccccccccc"
         inkscape:connector-curvature="0"
         id="path4394-7-5-1-8-5-9-5"
         d="m 98.453762,726.52053 -12.39976,3.92279 c -8.027059,32.59811 -14.497704,69.20842 -19.015535,102.68205 32.099149,61.9735 80.840843,123.07642 113.850343,185.00583 9.48275,-14.1194 20.01709,-28.10932 30.86755,-42.01426 l -42.53774,-1.56912 c 7.38359,-7.75631 -6.7938,-6.88389 30.3199,-25.9308 20.42363,-10.50122 9.43723,-120.06891 -12.35823,-206.79756 -62.189,25.75675 -71.67219,1.65355 -88.726528,-15.29893 z m -59.90841,19.43802 -2.009235,0.56824 c 0.01275,1.08671 0.369276,2.09194 0.548002,3.17855 0.458177,-1.26254 1.002291,-2.52526 1.461233,-3.74682 z m 199.654848,4.70739 c 16.41438,42.62367 29.5934,92.91775 35.47381,148.05084 32.87483,-42.05679 62.0082,-84.55109 74.31801,-129.18108 -29.54574,-85.7704 -67.61554,-75.70117 -109.79182,-18.86976 z"
         style="fill:#ffed00;fill-opacity:1;stroke:none" />
    </g>
  </g>
</svg>
